<svg xmlns="http://www.w3.org/2000/svg" width="214" height="145" viewBox="0 0 214 145">
<g>
<path d="M 0.00 0.00 L 214.00 0.00 L 214.00 145.00 L 0.00 145.00 ZM 159.75 118.92 C164.49,121.68 165.90,120.67 187.28,99.20 C204.67,81.74 208.00,77.93 208.00,75.50 C208.00,73.07 204.67,69.26 187.28,51.80 C168.81,33.26 166.21,31.00 163.32,31.00 C159.89,31.00 158.00,33.09 158.00,36.86 C158.00,38.08 164.86,45.88 175.88,57.18 L 193.76 75.53 L 175.88 93.82 C161.04,109.00 158.00,112.60 158.00,115.01 C158.00,116.71 158.72,118.32 159.75,118.92 ZM 23.67 99.17 C35.55,111.06 45.27,120.00 46.31,120.00 C49.91,120.00 52.00,118.05 52.00,114.70 C52.00,111.86 49.94,109.42 34.50,94.00 C24.88,84.39 17.00,76.06 17.00,75.50 C17.00,74.94 24.88,66.61 34.50,57.00 C52.39,39.13 53.45,37.58 50.96,32.93 C50.30,31.69 48.87,31.00 46.99,31.00 C44.48,31.00 41.03,34.06 23.77,51.59 C7.51,68.12 3.44,72.79 3.17,75.26 C2.88,78.07 4.62,80.10 23.67,99.17 ZM 113.85 114.09 C115.99,115.78 118.04,116.00 131.81,116.00 C150.12,116.00 151.00,115.63 151.00,107.87 C151.00,100.95 148.43,95.32 143.70,91.90 C140.15,89.32 138.88,89.00 132.31,89.00 C123.09,89.00 118.10,91.27 114.93,96.91 C111.49,103.03 107.26,103.30 101.36,97.76 C96.86,93.55 94.47,94.32 94.60,99.95 C94.73,105.85 99.44,110.39 106.54,111.45 C109.23,111.86 112.51,113.04 113.85,114.09 ZM 66.23 95.77 C67.48,96.37 72.86,96.90 78.19,96.93 L 87.89 97.00 L 88.19 92.75 L 88.50 88.50 L 93.24 88.20 C97.37,87.93 98.57,88.35 102.63,91.45 C105.19,93.40 107.67,95.00 108.14,95.00 C108.61,95.00 109.00,92.74 109.00,89.98 C109.00,85.57 108.70,84.84 106.57,84.03 C105.10,83.47 103.37,81.37 102.20,78.71 C101.13,76.29 98.80,73.28 97.02,72.01 C94.13,69.96 92.75,69.73 84.25,69.88 C78.20,69.98 73.58,70.58 71.61,71.53 C63.36,75.47 59.56,92.56 66.23,95.77 ZM 76.24 62.01 C83.53,66.45 93.57,63.36 97.10,55.60 C99.45,50.42 99.44,47.56 97.06,42.33 C94.71,37.16 91.66,35.09 85.38,34.41 C69.46,32.69 62.52,53.64 76.24,62.01 ZM 126.50 82.59 C134.07,85.95 141.80,82.97 145.14,75.41 C147.62,69.81 146.96,64.29 143.29,59.93 C136.95,52.40 129.06,51.99 121.73,58.82 C114.45,65.62 117.00,78.37 126.50,82.59 Z" fill="rgb(24,27,38)"/>
<path d="M 23.67 99.17 C4.62,80.10 2.88,78.07 3.17,75.26 C3.44,72.79 7.51,68.12 23.77,51.59 C41.03,34.06 44.48,31.00 46.99,31.00 C48.87,31.00 50.30,31.69 50.96,32.93 C53.45,37.58 52.39,39.13 34.50,57.00 C24.88,66.61 17.00,74.94 17.00,75.50 C17.00,76.06 24.88,84.39 34.50,94.00 C49.94,109.42 52.00,111.86 52.00,114.70 C52.00,118.05 49.91,120.00 46.31,120.00 C45.27,120.00 35.55,111.06 23.67,99.17 ZM 66.23 95.77 C59.56,92.56 63.36,75.47 71.61,71.53 C73.58,70.58 78.20,69.98 84.25,69.88 C92.75,69.73 94.13,69.96 97.02,72.01 C98.80,73.28 101.13,76.29 102.20,78.71 C103.37,81.37 105.10,83.47 106.57,84.03 C108.70,84.84 109.00,85.57 109.00,89.98 C109.00,92.74 108.61,95.00 108.14,95.00 C107.67,95.00 105.19,93.40 102.63,91.45 C98.57,88.35 97.37,87.93 93.24,88.20 L 88.50 88.50 L 88.19 92.75 L 87.89 97.00 L 78.19 96.93 C72.86,96.90 67.48,96.37 66.23,95.77 ZM 76.24 62.01 C62.52,53.64 69.46,32.69 85.38,34.41 C91.66,35.09 94.71,37.16 97.06,42.33 C99.44,47.56 99.45,50.42 97.10,55.60 C93.57,63.36 83.53,66.45 76.24,62.01 Z" fill="rgb(127,217,245)"/>
<path d="M 159.75 118.92 C158.72,118.32 158.00,116.71 158.00,115.01 C158.00,112.60 161.04,109.00 175.88,93.82 L 193.76 75.53 L 175.88 57.18 C164.86,45.88 158.00,38.08 158.00,36.86 C158.00,33.09 159.89,31.00 163.32,31.00 C166.21,31.00 168.81,33.26 187.28,51.80 C204.67,69.26 208.00,73.07 208.00,75.50 C208.00,77.93 204.67,81.74 187.28,99.20 C165.90,120.67 164.49,121.68 159.75,118.92 ZM 113.85 114.09 C112.51,113.04 109.23,111.86 106.54,111.45 C99.44,110.39 94.73,105.85 94.60,99.95 C94.47,94.32 96.86,93.55 101.36,97.76 C107.26,103.30 111.49,103.03 114.93,96.91 C118.10,91.27 123.09,89.00 132.31,89.00 C138.88,89.00 140.15,89.32 143.70,91.90 C148.43,95.32 151.00,100.95 151.00,107.87 C151.00,115.63 150.12,116.00 131.81,116.00 C118.04,116.00 115.99,115.78 113.85,114.09 ZM 126.50 82.59 C117.00,78.37 114.45,65.62 121.73,58.82 C129.06,51.99 136.95,52.40 143.29,59.93 C146.96,64.29 147.62,69.81 145.14,75.41 C141.80,82.97 134.07,85.95 126.50,82.59 Z" fill="rgb(158,223,102)"/>
</g>
</svg>